<svg version="1.1" xmlns="http://www.w3.org/2000/svg" xmlns:xlink="http://www.w3.org/1999/xlink" width="500" height="500"><defs><clipPath id="clip-1"><rect x="28.125" y="17.76549" transform="scale(3.2,3.2)" width="100" height="100"></rect></clipPath><linearGradient x1="56.01615" y1="56.84958" x2="56.01615" y2="443.15042" gradientUnits="userSpaceOnUse" id="color-1"><stop offset="0" stop-color="#2bde73"></stop><stop offset="1" stop-color="#2b73de"></stop></linearGradient></defs><g data-paper-data="{&quot;description&quot;:&quot;Logo for PinRecord\n==================\n\nThis logo was generated by MarkMaker at http://emblemmatic.org/markmaker/ and may be composed of elements designed by others.\n\nThe font is Limelight designed by Nicole Fally and released under the OFL license via Google Fonts: https://www.google.com/fonts/specimen/Limelight. The font includes this copyright statement: Copyright (c) 2010 by Sorkin Type Co (eben@eyebytes.com) with Reserved Font Name Limelight. This Font Software is licensed under the SIL Open Font License, Version 1.1. This license is available with a FAQ at\n\nThe symbol is 'island' designed by Arthur Schmitt and released into the public domain at the Noun Project: https://thenounproject.com/term/island/18162.\n\nMarkMaker uses semantic data from the Princeton University WordNet database http://wordnet.princeton.edu and font descriptions from Google Fonts https://www.google.com/fonts.&quot;}" fill="url(#color-1)" fill-rule="nonzero" stroke="none" stroke-width="1" stroke-linecap="butt" stroke-linejoin="miter" stroke-miterlimit="10" stroke-dasharray="" stroke-dashoffset="0" font-family="none" font-weight="none" font-size="none" text-anchor="none" style="mix-blend-mode: normal"><g data-paper-data="{&quot;elementType&quot;:&quot;logo&quot;}"><g data-paper-data="{&quot;elementType&quot;:&quot;text&quot;}"><g data-paper-data="{&quot;baseline&quot;:76.46484375,&quot;elementType&quot;:&quot;row&quot;}"><g data-paper-data="{&quot;baselineProportion&quot;:0.98801261829653,&quot;fontSize&quot;:100,&quot;baseline&quot;:76.46484375,&quot;elementType&quot;:&quot;word&quot;}"><path d="M68.54507,430.99248l2.49322,0.11205c3.62311,0 6.61123,-1.19525 8.96438,-3.58575c2.3905,-2.40918 3.64178,-5.52804 3.75384,-9.35658c0.20543,-5.90155 -2.63329,-9.88884 -8.51616,-11.96185c-2.20374,-0.78438 -5.07048,-1.17658 -8.60021,-1.17658h-2.35315v37.59439h-14.28699v-39.63939h10.72925c5.7895,0 9.28187,0.08404 10.47712,0.25212c1.19525,0.16808 2.44186,0.38285 3.73983,0.64432c1.29797,0.26146 2.69865,0.83107 4.20205,1.70884c1.5034,0.87776 2.77803,1.92361 3.82387,3.13753c2.11037,2.46521 3.1282,5.35995 3.05349,8.68425c-0.11205,4.23941 -1.354,7.76913 -3.72582,10.58918c-2.40918,2.83872 -5.73347,4.59425 -9.97288,5.26658c-1.2326,0.16808 -2.20374,0.25212 -2.91342,0.25212c-1.68082,0 -2.52123,-0.45756 -2.52123,-1.37267c0,-0.33616 0.14941,-0.61163 0.44822,-0.8264c0.29881,-0.21477 0.70034,-0.32216 1.20459,-0.32216z" data-paper-data="{&quot;elementType&quot;:&quot;letter&quot;,&quot;baseline&quot;:69.091796875,&quot;baselineProportion&quot;:1,&quot;fontSize&quot;:100}"></path><path d="M103.40016,412.69953h12.04589v29.91863h-12.04589zM109.28304,407.79713c0,0 -0.4809,0 -1.44271,0c-0.9618,0 -1.9843,-0.42954 -3.0675,-1.28863c-1.0832,-0.85909 -1.62479,-1.98897 -1.62479,-3.38966c0,-1.17658 0.59763,-2.18507 1.79288,-3.02548c1.26995,-0.89644 2.61461,-1.34466 4.03397,-1.34466c1.41936,0 2.51656,0.14007 3.29161,0.42021c0.77505,0.28014 1.43337,0.64432 1.97497,1.09253c1.0832,0.91511 1.62479,1.97963 1.62479,3.19356c0,1.21393 -0.6163,2.2411 -1.8489,3.08151c-1.2326,0.84041 -2.81071,1.26062 -4.73432,1.26062" data-paper-data="{&quot;elementType&quot;:&quot;letter&quot;,&quot;baseline&quot;:76.46484375,&quot;baselineProportion&quot;:1,&quot;fontSize&quot;:100}"></path><path d="M156.35211,415.75302c-0.46689,-0.29881 -0.97114,-0.44822 -1.51274,-0.44822c-0.5416,0 -1.10187,0.12606 -1.68082,0.37818c-0.57895,0.25212 -1.18591,0.60229 -1.82089,1.05051c-1.32598,0.95247 -2.54925,2.22242 -3.66979,3.80986v22.0748h-12.04589v-29.91863h12.04589v4.79034c3.19356,-3.52973 6.80733,-5.29459 10.8413,-5.29459c6.59256,0 9.88884,3.19356 9.88884,9.58069v20.84219h-12.04589z" data-paper-data="{&quot;elementType&quot;:&quot;letter&quot;,&quot;baseline&quot;:53.02734375,&quot;baselineProportion&quot;:1,&quot;fontSize&quot;:100}"></path><path d="M207.5672,429.03152l2.29712,0.16808c3.28694,0 6.07897,-1.14856 8.3761,-3.44569c2.29712,-2.29712 3.44569,-5.15452 3.44569,-8.57219c0,-4.48219 -1.9703,-7.80648 -5.91089,-9.97288c-2.16639,-1.19525 -4.48219,-1.88626 -6.9474,-2.07301c-1.04584,-0.09338 -2.01699,-0.14007 -2.91342,-0.14007h-1.90493c-0.39219,0 -0.73769,0.00934 -1.03651,0.02801v37.59439h-14.28699v-39.63939c4.37014,0 7.9092,0 10.61719,0c2.70799,0 4.47285,0.00934 5.29459,0.02801c0.82174,0.01868 1.55476,0.04202 2.19908,0.07003c0.64432,0.02801 1.24661,0.0607 1.80688,0.09805c0.82174,0.0747 1.9843,0.25212 3.48771,0.53226c1.5034,0.28014 2.9928,0.8124 4.46819,1.59678c1.47539,0.78438 2.74534,1.75553 3.80986,2.91342c2.29712,2.46521 3.44569,5.39731 3.44569,8.7963c0,3.36164 -1.06452,6.3311 -3.19356,8.90836c-2.18507,2.63329 -5.09849,4.33279 -8.74027,5.09849c1.73685,5.37863 3.94993,8.59087 6.63925,9.63671c0.82174,0.31749 1.64347,0.47623 2.46521,0.47623l2.21308,-0.53226c0.691,0 1.03651,0.35484 1.03651,1.06452c0,0.98982 -1.1579,1.48473 -3.4737,1.48473c-1.68082,0 -3.22158,-0.46689 -4.62226,-1.40068c-2.18507,-1.30731 -4.04331,-3.84721 -5.57473,-7.61973l-0.8124,-1.98897c-0.13073,-0.31749 -0.24745,-0.51358 -0.35017,-0.58829c-0.10272,-0.0747 -0.28014,-0.11205 -0.53226,-0.11205c-0.25212,0 -0.47156,0.01868 -0.65832,0.05603l-0.67233,0.02801c-0.74703,0 -1.25595,-0.14007 -1.52675,-0.42021c-0.2708,-0.28014 -0.4062,-0.56961 -0.4062,-0.86842c0,-0.80306 0.65365,-1.20459 1.96096,-1.20459z" data-paper-data="{&quot;elementType&quot;:&quot;letter&quot;,&quot;baseline&quot;:69.091796875,&quot;baselineProportion&quot;:0.9867503486750349,&quot;fontSize&quot;:100}"></path><path d="M267.63462,435.81083c0.72836,0 1.09253,0.33616 1.09253,1.00849c0,0.50425 -0.32683,1.10187 -0.98048,1.79288c-2.95078,3.02548 -6.99409,4.53822 -12.12993,4.53822c-4.61292,0 -8.49749,-1.39135 -11.6537,-4.17404c-3.26826,-2.89475 -4.9024,-6.55521 -4.9024,-10.98137c0,-4.51954 1.47539,-8.23603 4.42616,-11.14945c3.11886,-3.10018 7.26489,-4.65027 12.43808,-4.65027c4.14603,0 7.62906,1.26062 10.44911,3.78185c3.04416,2.70799 4.56623,6.26573 4.56623,10.67322c0,0.63498 -0.01868,1.30731 -0.05603,2.01699h-18.48904v12.01788c1.26995,0.26146 2.69865,0.39219 4.2861,0.39219c3.36164,0 6.22838,-1.11121 8.60021,-3.33363c0.48557,-0.48557 0.83107,-0.86842 1.03651,-1.14856c0.42954,-0.52292 0.86842,-0.78438 1.31664,-0.78438M260.15497,414.77255c-1.21393,-0.35484 -2.5866,-0.53226 -4.11801,-0.53226c-1.53142,0 -2.74534,0.10272 -3.64178,0.30815v12.0739h7.75979z" data-paper-data="{&quot;elementType&quot;:&quot;letter&quot;,&quot;baseline&quot;:53.02734375,&quot;baselineProportion&quot;:0.9828054298642533,&quot;fontSize&quot;:100}"></path><path d="M300.27664,440.82529c0.87776,0.16808 1.76019,0.25212 2.64729,0.25212c0.8871,0 1.74619,-0.07003 2.57726,-0.2101c0.83107,-0.14007 1.62013,-0.34083 2.36716,-0.60229c1.58744,-0.56027 2.86674,-1.26995 3.83788,-2.12904c0.691,-0.59763 1.19525,-0.89644 1.51274,-0.89644c0.70968,0 1.06452,0.31749 1.06452,0.95247c0,0.63498 -0.57895,1.39135 -1.73685,2.26911c-2.68932,1.79288 -5.92023,2.68932 -9.69274,2.68932c-4.91174,0 -8.88034,-1.47539 -11.90582,-4.42616c-2.96945,-2.91342 -4.45418,-6.69527 -4.45418,-11.34555c0,-4.40749 1.57811,-8.04927 4.73432,-10.92534c3.13753,-2.83872 7.07813,-4.25808 11.82178,-4.25808c2.70799,0 5.31327,0.56027 7.81582,1.68082c1.90493,0.82174 2.8574,1.67148 2.8574,2.54925c0,0.37352 -0.10739,0.65832 -0.32216,0.85442c-0.21477,0.1961 -0.45289,0.29414 -0.71435,0.29414c-0.39219,0 -0.89644,-0.21477 -1.51274,-0.64432c-1.21393,-1.1579 -3.01614,-1.9703 -5.40664,-2.43719c-0.85909,-0.16808 -1.80221,-0.25212 -2.82938,-0.25212c-1.02717,0 -1.91427,0.0747 -2.6613,0.22411z" data-paper-data="{&quot;elementType&quot;:&quot;letter&quot;,&quot;baseline&quot;:53.02734375,&quot;baselineProportion&quot;:0.9828054298642533,&quot;fontSize&quot;:100}"></path><path d="M329.10878,427.49077c0,-2.2411 0.4062,-4.28143 1.2186,-6.12099c0.8124,-1.83957 1.92828,-3.44102 3.34764,-4.80435c3.06283,-2.91342 6.91005,-4.37014 11.54164,-4.37014c4.72498,0 8.57219,1.51274 11.54164,4.53822c2.83872,2.8574 4.25808,6.47116 4.25808,10.8413c0,4.38881 -1.45671,8.05861 -4.37014,11.00938c-3.0068,3.04416 -6.85402,4.56623 -11.54164,4.56623c-4.57557,0 -8.36676,-1.44737 -11.37356,-4.34212c-3.08151,-2.98813 -4.62226,-6.76064 -4.62226,-11.31753M344.32022,441.0494c0.14941,0.01868 0.29881,0.02801 0.44822,0.02801h0.39219c3.77251,0 6.93806,-1.16724 9.49664,-3.50171c2.72667,-2.52123 4.09,-5.82685 4.09,-9.91685c0,-3.99662 -1.27929,-7.23687 -3.83788,-9.72075c-2.52123,-2.46521 -5.78016,-3.69781 -9.77678,-3.69781h-0.42021c-0.13073,0 -0.26146,0.00934 -0.39219,0.02801z" data-paper-data="{&quot;elementType&quot;:&quot;letter&quot;,&quot;baseline&quot;:53.02734375,&quot;baselineProportion&quot;:0.9828054298642533,&quot;fontSize&quot;:100}"></path><path d="M379.20333,412.69953h12.04589v8.7963c1.28863,-3.19356 2.67531,-5.54204 4.16003,-7.04545c1.48473,-1.5034 2.97412,-2.2551 4.46819,-2.2551c0.84041,0 1.50807,0.21944 2.00298,0.65832c0.49491,0.43888 0.74236,0.92912 0.74236,1.47072c0,0.5416 -0.0747,0.97114 -0.22411,1.28863c-0.14941,0.31749 -0.3455,0.58829 -0.58829,0.8124c-0.50425,0.46689 -0.98048,0.70034 -1.4287,0.70034c-0.70968,0 -1.2326,-0.0747 -1.56877,-0.22411c-0.57895,-0.26146 -1.09253,-0.39219 -1.54075,-0.39219c-0.44822,0 -1.01783,0.35951 -1.70884,1.07853c-0.691,0.71902 -1.354,1.7135 -1.98897,2.98346c-1.55009,3.10018 -2.32514,6.46183 -2.32514,10.08493v11.96185h-12.04589z" data-paper-data="{&quot;elementType&quot;:&quot;letter&quot;,&quot;baseline&quot;:53.02734375,&quot;baselineProportion&quot;:1,&quot;fontSize&quot;:100}"></path><path d="M438.45836,441.07741c-2.33447,1.38201 -4.80435,2.07301 -7.40962,2.07301c-2.60527,0 -4.89306,-0.38752 -6.86336,-1.16257c-1.9703,-0.77505 -3.65579,-1.85357 -5.05647,-3.23558c-2.91342,-2.89475 -4.37014,-6.65792 -4.37014,-11.28952c0,-4.29543 1.43804,-7.87185 4.31411,-10.72925c3.06283,-3.02548 7.05945,-4.53822 11.98986,-4.53822c2.61461,0 5.07982,0.56961 7.39562,1.70884v-10.92534h11.54164v39.63939h-11.54164v-1.54075M430.50246,414.24029c-0.57895,0 -1.12989,0.03735 -1.65281,0.11205v26.55699c0.67233,0.11205 1.40068,0.16808 2.18507,0.16808c2.59594,0 5.07048,-0.82174 7.42363,-2.46521v-22.21486c-2.52123,-1.43804 -5.1732,-2.15705 -7.95589,-2.15705z" data-paper-data="{&quot;elementType&quot;:&quot;letter&quot;,&quot;baseline&quot;:69.091796875,&quot;baselineProportion&quot;:0.9867503486750349,&quot;fontSize&quot;:100}"></path></g></g></g></g><g clip-path="url(#clip-1)" data-paper-data="{&quot;elementType&quot;:&quot;emblem&quot;}"><path d="M409.7248,193.44798c-2.2144,-4.9824 -5.0336,-9.0368 -8.4832,-13.0016c-3.4336,-3.8944 -7.4528,-7.392 -11.9328,-10.352c-2.5536,-1.6864 -5.2672,-3.1776 -8.0704,-4.5056c0.1248,-0.112 0.224,-0.2272 0.3456,-0.3392c1.4304,-1.2576 3.0272,-2.4672 4.7328,-3.584c1.68,-1.1168 3.5808,-2.1792 5.3184,-3.088l0.3648,-0.192c0.8192,-0.432 1.456,-1.2032 1.6864,-2.176c0.416,-1.7856 -0.6944,-3.5744 -2.4768,-3.9936c-2.4128,-0.5664 -4.6464,-0.9888 -7.0496,-1.2896c-2.384,-0.304 -4.8256,-0.4672 -7.3696,-0.4512c-2.5408,0.0288 -5.184,0.2432 -7.968,0.8032c-1.1648,0.2432 -2.368,0.592 -3.5776,0.976c-2.32,-4.8768 -5.3376,-9.5776 -9.184,-13.5136c-4.2656,-4.4192 -9.4688,-7.6768 -14.704,-9.776c-5.264,-2.1088 -10.5536,-3.1648 -15.7024,-3.824c-1.36,-0.1696 -2.736,0.5408 -3.3376,1.856c-0.7392,1.616 -0.0288,3.5296 1.5872,4.272l0.0384,0.016c4.432,2.0288 8.5856,4.3776 11.9936,7.2c3.408,2.8288 6.0288,6.0704 7.744,9.6384c0.0768,0.1568 0.128,0.32 0.2016,0.4736c-7.088,-2.352 -14.3008,-3.5104 -21.3504,-3.6576c-7.9328,-0.1568 -15.6896,0.8352 -23.104,2.8064c-7.4016,1.984 -14.5184,4.9376 -20.8768,9.1456c-1.2288,0.8128 -1.7696,2.4 -1.2128,3.8336c0.64,1.648 2.496,2.464 4.1472,1.8208l0.0576,-0.0224c6.2752,-2.4448 12.9952,-3.6512 19.648,-3.9648c6.656,-0.304 13.2864,0.3072 19.52,1.808c2.8576,0.6848 5.6064,1.5904 8.2432,2.6496c-1.2576,0.5664 -2.5088,1.1328 -3.7088,1.7632c-3.3088,1.7536 -6.4544,3.728 -9.4016,6.0096c-2.9312,2.304 -5.7568,4.8736 -7.9552,8.2528c-0.6304,0.9792 -0.7168,2.272 -0.096,3.3536c0.88,1.5456 2.848,2.0864 4.4,1.2032l0.3488,-0.1984c2.3424,-1.3344 5.2096,-2.1952 8.1088,-2.768c2.9184,-0.5728 5.9296,-0.864 8.8832,-0.9248c1.5808,-0.0288 3.1424,0.0192 4.6752,0.1344c-0.7808,0.5888 -1.568,1.1744 -2.3328,1.7856c-9.0464,7.2448 -16.9312,16.0416 -23.3792,25.888c-6.448,9.8464 -11.4048,20.7712 -14.7488,32.2048c-0.7904,2.6624 -1.472,5.376 -2.0864,8.1024c-15.1328,-2.4864 -30.4864,-3.76 -45.7504,-3.7856v-25.5104h8.4576c4.9696,0 6.1632,-2.8768 2.6464,-6.3936l-46.9504,-46.9472c-3.5168,-3.5168 -9.264,-3.5168 -12.7776,0l-46.9536,46.9504c-3.5168,3.5168 -2.3264,6.3936 2.6464,6.3936h8.4576v38.8736c-27.5584,9.3728 -52.256,23.6256 -71.4368,42.8064c5.1904,-1.5168 10.672,-2.3616 16.2976,-2.3616c8.7712,0 17.1744,2.032 24.6432,5.44c7.3024,3.3376 15.4688,5.296 23.9328,5.296c8.5024,0 16.6688,-1.9584 23.9616,-5.296c7.4208,-3.4144 15.8528,-5.44 24.64,-5.44c8.7488,0 17.184,2.032 24.6432,5.44c7.2672,3.3376 15.3856,5.296 23.904,5.296c8.5088,0 16.6496,-1.9584 23.9936,-5.296c7.4368,-3.4144 15.8752,-5.44 24.5728,-5.44c8.7904,0 17.2096,2.032 24.6752,5.44c7.2416,3.3376 15.4816,5.296 23.8944,5.296c8.5088,0 16.6272,-1.9584 23.9936,-5.296c7.4304,-3.4144 15.8496,-5.44 24.5888,-5.44c3.3536,0 6.6528,0.3008 9.872,0.8608c-26.7424,-22.5344 -59.8752,-38.0384 -95.0976,-46.64c0.1952,-2.64 0.4672,-5.2832 0.8576,-7.9328c1.4464,-9.9424 4.3168,-19.7408 8.656,-28.976c4.3392,-9.2224 10.1312,-17.8976 17.2544,-25.4496c2.1408,-2.2656 4.416,-4.4288 6.7904,-6.4832c1.3856,0.4576 2.8768,0.704 4.4,0.6624c0.4992,-0.0128 0.9696,-0.1184 1.456,-0.1888c0.4032,0.2816 0.8128,0.5408 1.2512,0.7744c1.2864,2.5312 2.3904,5.3408 3.2448,8.2976c0.9088,3.1552 1.5552,6.464 1.8848,9.792c0.3264,3.3184 0.3424,6.7136 -0.288,9.7568l-0.0672,0.3072c-0.2432,1.2 0.208,2.4928 1.264,3.2608c1.4432,1.0464 3.4592,0.7264 4.5056,-0.7168c2.544,-3.504 4.144,-7.3024 5.4432,-11.1616c1.28,-3.872 2.1984,-7.8528 2.7744,-11.9456c0.4224,-3.0496 0.6656,-6.1664 0.6656,-9.3824c3.3632,0.1376 6.7328,0.6016 10.0672,1.4592c3.9392,1.0144 7.8272,2.576 11.5136,4.6816c3.632,2.0544 7.2768,4.864 10,7.7792l0.3008,0.3232c0.9024,0.9632 2.352,1.2992 3.6256,0.7328c1.6,-0.72 2.3232,-2.6048 1.6096,-4.2112z"></path></g></g></svg>