<?xml version="1.0" standalone="no"?>
<!DOCTYPE svg PUBLIC "-//W3C//DTD SVG 20010904//EN"
 "http://www.w3.org/TR/2001/REC-SVG-20010904/DTD/svg10.dtd">
<svg version="1.0" xmlns="http://www.w3.org/2000/svg"
 width="295.000000pt" height="171.000000pt" viewBox="0 0 295.000000 171.000000"
 preserveAspectRatio="xMidYMid meet">

<g transform="translate(0.000000,171.000000) scale(0.100000,-0.100000)"
fill="#000000" stroke="none">
<path d="M1938 1119 l-31 -30 -112 7 c-128 8 -165 3 -214 -27 -19 -12 -55 -23
-80 -24 -26 -2 -79 -8 -119 -13 -97 -14 -115 -31 -137 -131 -31 -144 -30 -139
-44 -113 -10 18 -9 26 4 44 47 68 -29 208 -113 208 -10 0 -40 -11 -66 -24
l-47 -24 -10 27 c-6 14 -24 41 -42 59 -40 41 -89 43 -159 5 -67 -36 -103 -97
-103 -173 0 -65 12 -95 77 -203 26 -44 48 -86 48 -92 0 -7 -16 -25 -36 -40
l-36 -28 4 -69 c4 -67 6 -72 42 -105 36 -33 42 -35 88 -30 27 4 74 19 103 35
45 25 56 27 66 16 29 -35 121 -22 199 30 24 16 41 21 55 15 11 -4 54 -8 96 -8
70 -1 79 1 103 25 14 15 26 33 26 41 0 10 10 7 32 -12 26 -22 37 -25 67 -20
20 4 70 10 112 14 126 11 172 59 167 173 l-4 67 38 14 c44 18 48 12 48 -65 0
-45 4 -54 40 -91 l40 -40 79 6 c90 6 138 26 147 63 4 14 3 69 0 123 l-7 97 45
94 c25 51 46 102 46 113 0 10 -15 34 -34 53 -31 31 -39 34 -92 34 -33 -1 -77
-7 -98 -15 -39 -13 -41 -13 -73 16 -43 37 -76 37 -115 -2z m85 -19 c16 -13 27
-33 29 -53 4 -46 32 -48 58 -4 14 24 30 37 52 41 47 9 98 7 98 -4 0 -5 7 -10
15 -10 24 0 18 -22 -29 -119 l-44 -90 6 -109 c6 -127 7 -125 -91 -135 -52 -5
-60 -3 -81 20 -20 21 -24 39 -30 120 -6 89 -9 98 -47 154 l-40 59 -64 0 c-71
0 -72 -1 -59 -69 6 -30 8 -31 46 -25 46 8 88 -10 88 -38 0 -10 -1 -18 -2 -18
-2 0 -27 -9 -57 -18 l-54 -18 2 -82 c1 -44 -3 -90 -9 -101 -17 -32 -68 -55
-95 -43 -12 6 -28 6 -35 2 -8 -5 -36 -12 -62 -15 -43 -6 -50 -4 -68 17 -11 12
-22 38 -26 56 -8 39 -15 45 -47 33 -21 -8 -25 -17 -29 -65 -7 -79 -18 -90 -96
-83 -64 5 -102 27 -102 59 0 7 -8 0 -19 -17 -24 -40 -49 -61 -94 -80 -55 -23
-80 -19 -100 14 -9 16 -17 37 -17 47 0 13 -6 10 -23 -14 -43 -57 -103 -92
-160 -92 -40 0 -67 39 -67 94 0 29 5 38 29 50 60 31 55 76 -20 209 -52 91 -61
115 -61 156 0 61 23 102 72 130 49 28 78 26 106 -4 35 -38 41 -87 15 -128 -26
-43 -17 -82 37 -146 52 -61 73 -105 81 -164 l6 -49 24 19 c35 29 29 62 -28
155 -28 46 -53 97 -57 115 -13 67 31 129 106 148 30 7 61 -21 78 -72 9 -27 8
-36 -10 -58 -27 -34 -19 -61 37 -129 25 -31 51 -70 58 -88 14 -32 14 -31 21
55 9 101 39 254 53 268 12 12 191 39 209 32 8 -3 14 -9 14 -14 0 -5 6 -9 13
-9 7 0 28 -59 53 -148 23 -81 48 -162 56 -181 l14 -34 27 24 28 24 -11 95 c-5
52 -15 119 -21 148 -10 52 -11 53 -32 38 -40 -29 -49 -30 -68 -5 -34 45 -19
91 35 109 24 8 78 9 169 4 l134 -7 24 32 c27 37 29 37 62 11z"/>
<path d="M1461 810 c0 -29 1 -32 10 -17 7 11 7 23 0 35 -9 14 -10 11 -10 -18z"/>
</g>
</svg>
